<?xml version="1.0" encoding="UTF-8"?>
<!-- Created with Inkscape (http://www.inkscape.org/) -->
<svg width="1300" height="675" version="1.1" viewBox="0 0 343.96 178.59" xmlns="http://www.w3.org/2000/svg">
 <style>::selection {
  background-color: #ffe28c;
  color: white;
}::-moz-selection {
  background-color: #ffe28c;
  color: white;
}</style>
 <defs>
  <marker id="ConcaveTriangle" overflow="visible" markerHeight="1" markerWidth="1" orient="auto-start-reverse" preserveAspectRatio="xMidYMid" viewBox="0 0 1 1">
   <path transform="scale(.7)" d="m-2-4 11 4-11 4c2-2.33 2-5.66 0-8z" fill="context-stroke" fill-rule="evenodd"/>
  </marker>
 </defs>
 <g>
  <g stroke-width=".79">
   <path d="m10.228 26.205h25.748l13.934 12.565-13.934 12.565h-25.748z" fill="#c6e9af" stroke="#447821"/>
   <path d="m281.62 39.625h-34.455l13.934 12.565-13.934 12.565h34.455z" fill="#87aade" stroke="#214478"/>
   <path d="m279.52 107.86h-34.455l13.934 12.565-13.934 12.565h34.455z" fill="#87aade" stroke="#214478"/>
  </g>
  <path d="m183.66 85.848c19.196 0.40783 43.721-34.176 62.267-34.013" fill="none" marker-end="url(#ConcaveTriangle)" stroke="#00f" stroke-width=".69741"/>
  <path d="m183.66 86.812c19.196-0.40784 43.721 34.176 62.267 34.013" fill="none" marker-end="url(#ConcaveTriangle)" stroke="#00f" stroke-width=".69741"/>
  <g fill="#1a1a1a" font-family="Consolas" font-size="6.35px" stroke-width=".19">
   <text x="9.2688551" y="23.44912" style="font-variant-caps:normal;font-variant-east-asian:normal;font-variant-ligatures:normal;font-variant-numeric:normal" xml:space="preserve"><tspan x="9.2688551" y="23.44912" stroke-width=".19" style="font-variant-caps:normal;font-variant-east-asian:normal;font-variant-ligatures:normal;font-variant-numeric:normal">selectInput("in_species")</tspan><tspan x="9.2688551" y="31.38662" style="font-variant-caps:normal;font-variant-east-asian:normal;font-variant-ligatures:normal;font-variant-numeric:normal"/></text>
   <text x="223.62469" y="32.432049" style="font-variant-caps:normal;font-variant-east-asian:normal;font-variant-ligatures:normal;font-variant-numeric:normal" xml:space="preserve"><tspan x="223.62469" y="32.432049" stroke-width=".19" style="font-variant-caps:normal;font-variant-east-asian:normal;font-variant-ligatures:normal;font-variant-numeric:normal">plotOutput("out_peng_flip_body")</tspan><tspan x="223.62469" y="40.369549" style="font-variant-caps:normal;font-variant-east-asian:normal;font-variant-ligatures:normal;font-variant-numeric:normal"/></text>
   <text x="223.92545" y="144.59406" style="font-variant-caps:normal;font-variant-east-asian:normal;font-variant-ligatures:normal;font-variant-numeric:normal" xml:space="preserve"><tspan x="223.92545" y="144.59406" stroke-width=".19" style="font-variant-caps:normal;font-variant-east-asian:normal;font-variant-ligatures:normal;font-variant-numeric:normal">tableOutput("out_peng_sumstats")</tspan><tspan x="223.92545" y="152.53156" style="font-variant-caps:normal;font-variant-east-asian:normal;font-variant-ligatures:normal;font-variant-numeric:normal"/></text>
  </g>
  <path d="m10.228 73.947h25.748l13.934 12.565-13.934 12.565h-25.748z" fill="#c6e9af" stroke="#447821" stroke-width=".79"/>
  <text x="9.2688551" y="71.191406" fill="#1a1a1a" font-family="Consolas" font-size="6.35px" stroke-width=".19" style="font-variant-caps:normal;font-variant-east-asian:normal;font-variant-ligatures:normal;font-variant-numeric:normal" xml:space="preserve"><tspan x="9.2688551" y="71.191406" stroke-width=".19" style="font-variant-caps:normal;font-variant-east-asian:normal;font-variant-ligatures:normal;font-variant-numeric:normal">selectInput("in_island")</tspan><tspan x="9.2688551" y="79.128906" style="font-variant-caps:normal;font-variant-east-asian:normal;font-variant-ligatures:normal;font-variant-numeric:normal"/></text>
  <path d="m10.228 120.94h25.748l13.934 12.565-13.934 12.565h-25.748z" fill="#c6e9af" stroke="#447821" stroke-width=".79"/>
  <text x="9.2688551" y="118.18929" fill="#1a1a1a" font-family="Consolas" font-size="6.35px" stroke-width=".19" style="font-variant-caps:normal;font-variant-east-asian:normal;font-variant-ligatures:normal;font-variant-numeric:normal" xml:space="preserve"><tspan x="9.2688551" y="118.18929" stroke-width=".19" style="font-variant-caps:normal;font-variant-east-asian:normal;font-variant-ligatures:normal;font-variant-numeric:normal">sliderInput("in_pct")</tspan><tspan x="9.2688551" y="126.12679" style="font-variant-caps:normal;font-variant-east-asian:normal;font-variant-ligatures:normal;font-variant-numeric:normal"/></text>
  <path d="m170.54 73.947h-34.455l13.934 12.565-13.934 12.565h34.455l13.437-12.565z" fill="#fae" stroke="#504" stroke-width=".79"/>
  <g fill="none" stroke="#00f">
   <path d="m47.805 86.322 85.912-0.31463" marker-end="url(#ConcaveTriangle)" stroke-width=".64426"/>
   <path d="m49.928 133.53c25.564-1.4487 35.746-10.45 47.845-20.648 11.932-10.058 19.877-18.829 35.585-20.648" marker-end="url(#ConcaveTriangle)" stroke-width=".63543"/>
   <path d="m48.165 38.77c26.243 1.4474 36.696 10.44 49.115 20.63 12.249 10.05 20.405 18.812 36.53 20.63" marker-end="url(#ConcaveTriangle)" stroke-width=".64353"/>
  </g>
  <text x="133.18077" y="107.06625" fill="#1a1a1a" font-family="Consolas" font-size="6.35px" stroke-width=".19" style="font-variant-caps:normal;font-variant-east-asian:normal;font-variant-ligatures:normal;font-variant-numeric:normal" xml:space="preserve"><tspan x="133.18077" y="107.06625" style="font-variant-caps:normal;font-variant-east-asian:normal;font-variant-ligatures:normal;font-variant-numeric:normal">penguins_sub &lt;-</tspan><tspan x="133.18077" y="115.00375" style="font-variant-caps:normal;font-variant-east-asian:normal;font-variant-ligatures:normal;font-variant-numeric:normal">  reactive(...) </tspan></text>
 </g>
</svg>
